<?xml version="1.0" standalone="no"?>
<!DOCTYPE svg PUBLIC "-//W3C//DTD SVG 20010904//EN"
 "http://www.w3.org/TR/2001/REC-SVG-20010904/DTD/svg10.dtd">
<svg version="1.0" xmlns="http://www.w3.org/2000/svg"
 width="260.000000pt" height="260.000000pt" viewBox="0 0 260.000000 260.000000"
 preserveAspectRatio="xMidYMid meet">
<metadata>
Created by potrace 1.11, written by Peter Selinger 2001-2013
</metadata>
<g transform="translate(0.000000,260.000000) scale(0.100000,-0.100000)"
fill="#000000" stroke="none">
<path d="M0 1300 l0 -1300 1300 0 1300 0 0 1300 0 1300 -1300 0 -1300 0 0
-1300z m1167 236 c120 -311 129 -334 137 -325 1 2 58 149 126 327 l123 322
194 0 193 0 -2 -562 -3 -563 -142 -3 -143 -3 0 328 c0 201 -4 323 -9 317 -5
-5 -64 -148 -131 -317 l-122 -308 -91 3 -92 3 -125 315 -125 315 -3 -327 -2
-328 -145 0 -145 0 0 565 0 565 192 -2 193 -3 122 -319z"/>
</g>
</svg>
