<?xml version="1.0" encoding="UTF-8"?>
<svg width="192px" height="38px" viewBox="0 0 192 38" version="1.1" xmlns="http://www.w3.org/2000/svg" xmlns:xlink="http://www.w3.org/1999/xlink">
    <!-- Generator: Sketch 48.2 (47327) - http://www.bohemiancoding.com/sketch -->
    <title>Group</title>
    <desc>Created with Sketch.</desc>
    <defs></defs>
    <g id="Desktop-Copy-3" stroke="none" stroke-width="1" fill="none" fill-rule="evenodd" transform="translate(-421.000000, -1330.000000)">
        <g id="Group" transform="translate(421.000000, 1330.000000)">
            <rect id="Rectangle-3" fill="#000000" x="0" y="0" width="191.2" height="37.553"></rect>
            <path d="M23.6804688,27 L22.3914063,22.8984375 L16.45,22.8984375 L15.1609375,27 L11.528125,27 L17.3992188,10.0898438 L21.559375,10.0898438 L27.4421875,27 L23.6804688,27 Z M19.3796875,13.3242188 L17.2117188,20.25 L21.6296875,20.25 L19.4617188,13.3242188 L19.3796875,13.3242188 Z M40.0988375,24.0703125 L40.0988375,27 L29.1652438,27 L29.1652438,10.0898438 L32.7043063,10.0898438 L32.7043063,24.0703125 L40.0988375,24.0703125 Z M53.1304875,24.0703125 L53.1304875,27 L42.1968938,27 L42.1968938,10.0898438 L45.7359563,10.0898438 L45.7359563,24.0703125 L53.1304875,24.0703125 Z M59.9750375,10.0898438 L66.8539438,10.0898438 C70.3226938,10.0898438 72.7133188,12.3984375 72.7133188,15.8789062 C72.7133188,19.3476562 70.2406625,21.6679688 66.6781625,21.6679688 L63.5141,21.6679688 L63.5141,27 L59.9750375,27 L59.9750375,10.0898438 Z M63.5141,12.890625 L63.5141,18.9023438 L65.904725,18.9023438 C67.9320688,18.9023438 69.1156625,17.8242188 69.1156625,15.890625 C69.1156625,13.96875 67.9437875,12.890625 65.9164438,12.890625 L63.5141,12.890625 Z M78.3387188,12.8554688 L78.3387188,18.2460938 L81.3855938,18.2460938 C83.1668438,18.2460938 84.2098125,17.2265625 84.2098125,15.5507812 C84.2098125,13.9101562 83.10825,12.8554688 81.3504375,12.8554688 L78.3387188,12.8554688 Z M78.3387188,20.8125 L78.3387188,27 L74.7996563,27 L74.7996563,10.0898438 L81.7254375,10.0898438 C85.6160625,10.0898438 87.842625,12.140625 87.842625,15.4804688 C87.842625,17.6484375 86.717625,19.5234375 84.7723125,20.2851562 L88.3348125,27 L84.327,27 L81.1746563,20.8125 L78.3387188,20.8125 Z M97.7922438,9.796875 C102.79615,9.796875 105.948494,13.1601562 105.948494,18.5507812 C105.948494,23.9296875 102.79615,27.2929688 97.7922438,27.2929688 C92.7766188,27.2929688 89.6359938,23.9296875 89.6359938,18.5507812 C89.6359938,13.1601562 92.7766188,9.796875 97.7922438,9.796875 Z M97.7922438,12.75 C95.0266188,12.75 93.2453688,15 93.2453688,18.5507812 C93.2453688,22.0898438 95.0149,24.328125 97.7922438,24.328125 C100.557869,24.328125 102.3274,22.0898438 102.3274,18.5507812 C102.3274,15 100.557869,12.75 97.7922438,12.75 Z M107.179363,22.0195312 L110.612956,22.0195312 C110.636394,23.390625 111.527019,24.2929688 112.862956,24.2929688 C114.339519,24.2929688 115.136394,23.3789062 115.136394,21.6796875 L115.136394,10.0898438 L118.675456,10.0898438 L118.675456,21.703125 C118.675456,25.3007812 116.519206,27.3515625 112.898113,27.3515625 C109.441081,27.3515625 107.179363,25.2539062 107.179363,22.0195312 Z M132.820388,24.0703125 L132.820388,27 L121.617263,27 L121.617263,10.0898438 L132.820388,10.0898438 L132.820388,13.0078125 L125.156325,13.0078125 L125.156325,17.0859375 L132.386794,17.0859375 L132.386794,19.8046875 L125.156325,19.8046875 L125.156325,24.0703125 L132.820388,24.0703125 Z M142.852038,27.2929688 C137.930163,27.2929688 134.848131,24 134.848131,18.5390625 C134.848131,13.0898438 137.9536,9.796875 142.852038,9.796875 C146.918444,9.796875 150.012194,12.375 150.281725,16.1601562 L146.836413,16.1601562 C146.508288,14.0859375 144.914538,12.7265625 142.852038,12.7265625 C140.180163,12.7265625 138.457506,14.9648438 138.457506,18.5273438 C138.457506,22.1367188 140.156725,24.3632812 142.863756,24.3632812 C144.961413,24.3632812 146.473131,23.1328125 146.848131,21.1289062 L150.293444,21.1289062 C149.895006,24.9023438 147.000475,27.2929688 142.852038,27.2929688 Z M159.528219,27 L155.989156,27 L155.989156,13.0078125 L151.102438,13.0078125 L151.102438,10.0898438 L164.426656,10.0898438 L164.426656,13.0078125 L159.528219,13.0078125 L159.528219,27 Z M165.751275,22.1835938 L169.161431,22.1835938 C169.325494,23.578125 170.778619,24.4921875 172.653619,24.4921875 C174.540338,24.4921875 175.8294,23.5898438 175.8294,22.3476562 C175.8294,21.2460938 175.020806,20.6367188 172.981744,20.1796875 L170.778619,19.6992188 C167.661431,19.03125 166.126275,17.4492188 166.126275,14.9765625 C166.126275,11.859375 168.821588,9.796875 172.595025,9.796875 C176.532525,9.796875 179.005181,11.8242188 179.063775,14.8828125 L175.747369,14.8828125 C175.630181,13.453125 174.376275,12.5859375 172.606744,12.5859375 C170.86065,12.5859375 169.688775,13.4179688 169.688775,14.671875 C169.688775,15.7148438 170.509088,16.3007812 172.4544,16.7460938 L174.505181,17.1796875 C177.8919,17.90625 179.368463,19.359375 179.368463,21.9375 C179.368463,25.21875 176.708306,27.2929688 172.512994,27.2929688 C168.446588,27.2929688 165.856744,25.359375 165.751275,22.1835938 Z" id="ALL-PROJECTS" fill="#FFFFFF"></path>
        </g>
    </g>
</svg>