<?xml version="1.0" encoding="UTF-8" standalone="no"?>
<svg width="100px" height="100px" viewBox="0 0 100 100" version="1.1" xmlns="http://www.w3.org/2000/svg" xmlns:xlink="http://www.w3.org/1999/xlink">
    <!-- Generator: Sketch 3.8.2 (29753) - http://www.bohemiancoding.com/sketch -->
    <title>Artboard 6</title>
    <desc>Created with Sketch.</desc>
    <defs></defs>
    <g id="Page-1" stroke="none" stroke-width="1" fill="none" fill-rule="evenodd">
        <g id="Artboard-6">
            <g id="logo_vector" transform="translate(6.000000, 10.500000)">
                <g id="Page-1">
                    <g>
                        <g id="Artboard-1">
                            <g id="logo_vector">
                                <path d="M60.6667391,29.8228693 L0,3.79808345 C0,3.79808345 17.4426708,9.86791246 16.3431375,29.8228679 C15.5314045,44.5546584 4.81828817,61.4532043 4.81828822,61.4532049 C4.81828838,61.4532062 60.6667391,29.8228693 60.6667391,29.8228693 L60.6667391,29.8228693 Z" id="Path-1-Copy" stroke="#AEAEAE" stroke-width="0.5" fill="#ADADAD"></path>
                                <path d="M87.8508973,47.259525 L27.1841582,21.2347391 C27.1841582,21.2347391 44.6268291,27.3045682 43.5272957,47.2595236 C42.7155628,61.991314 32.0024465,78.88986 32.0024465,78.8898605 C32.0024466,78.8898619 87.8508973,47.259525 87.8508973,47.259525 L87.8508973,47.259525 Z" id="Path-1-Copy-2" stroke="#396198" stroke-width="0.5" fill="#41628F" transform="translate(57.517528, 50.062300) scale(-1, -1) translate(-57.517528, -50.062300) "></path>
                                <path d="M65.6560284,26.8271237 L81.9129271,18.0751019 C81.9129271,18.0751019 72.0550998,24.2062938 63.6593997,22.2454756 C46.15587,18.1575212 0.871287129,5.16987883e-26 0.871287129,5.16987883e-26 L65.6560284,26.8271237 L65.6560284,26.8271237 Z" id="Path-4" fill="#FFD33C"></path>
                            </g>
                        </g>
                    </g>
                </g>
            </g>
            <rect id="Rectangle-35-Copy" x="0" y="0" width="100" height="100" rx="22"></rect>
        </g>
    </g>
</svg>