<?xml version="1.0" encoding="UTF-8"?>
<svg width="110px" height="47px" viewBox="0 0 110 47" version="1.1" xmlns="http://www.w3.org/2000/svg" xmlns:xlink="http://www.w3.org/1999/xlink">
    <!-- Generator: Sketch 48.2 (47327) - http://www.bohemiancoding.com/sketch -->
    <title>Group</title>
    <desc>Created with Sketch.</desc>
    <defs></defs>
    <g id="Desktop-Copy-2" stroke="none" stroke-width="1" fill="none" fill-rule="evenodd" transform="translate(-457.000000, -48.000000)">
        <g id="Group" transform="translate(457.000000, 48.000000)" fill="#FFFFFF">
            <path d="M0,0 L110,0 L110,47 L0,47 L0,0 Z M31.1269531,34.5 L31.1269531,13.3623047 L26.703125,13.3623047 L26.703125,21.9462891 L17.1816406,21.9462891 L17.1816406,13.3623047 L12.7578125,13.3623047 L12.7578125,34.5 L17.1816406,34.5 L17.1816406,25.59375 L26.703125,25.59375 L26.703125,34.5 L31.1269531,34.5 Z M44.1792109,12.9960938 C37.9096797,12.9960938 33.9838984,17.2001953 33.9838984,23.9384766 C33.9838984,30.6621094 37.9096797,34.8662109 44.1792109,34.8662109 C50.4340938,34.8662109 54.3745234,30.6621094 54.3745234,23.9384766 C54.3745234,17.2001953 50.4340938,12.9960938 44.1792109,12.9960938 Z M79.5996328,34.5 L79.5996328,13.3623047 L74.4726797,13.3623047 L68.4668203,28.3476562 L68.3496328,28.3476562 L62.3437734,13.3623047 L57.2168203,13.3623047 L57.2168203,34.5 L61.15725,34.5 L61.15725,20.2324219 L61.2744375,20.2324219 L67.016625,34.2949219 L69.7998281,34.2949219 L75.5420156,20.2324219 L75.6592031,20.2324219 L75.6592031,34.5 L79.5996328,34.5 Z M97.1196641,30.8378906 L87.5395859,30.8378906 L87.5395859,25.5058594 L96.5776719,25.5058594 L96.5776719,22.1074219 L87.5395859,22.1074219 L87.5395859,17.0097656 L97.1196641,17.0097656 L97.1196641,13.3623047 L83.1157578,13.3623047 L83.1157578,34.5 L97.1196641,34.5 L97.1196641,30.8378906 Z" id="Combined-Shape"></path>
            <path d="M44.1792109,16.6875 C40.7221797,16.6875 38.4956172,19.5 38.4956172,23.9384766 C38.4956172,28.3623047 40.7075313,31.1601562 44.1792109,31.1601562 C47.6362422,31.1601562 49.8481563,28.3623047 49.8481563,23.9384766 C49.8481563,19.5 47.6362422,16.6875 44.1792109,16.6875 Z" id="Path"></path>
        </g>
    </g>
</svg>