<?xml version="1.0" encoding="UTF-8"?>
<svg width="12px" height="18px" viewBox="0 0 12 18" version="1.1" xmlns="http://www.w3.org/2000/svg" xmlns:xlink="http://www.w3.org/1999/xlink">
    <!-- Generator: Sketch 48.2 (47327) - http://www.bohemiancoding.com/sketch -->
    <title>noun_1165522_cc</title>
    <desc>Created with Sketch.</desc>
    <defs></defs>
    <g id="Mobile" stroke="none" stroke-width="1" fill="none" fill-rule="evenodd" transform="translate(-32.000000, -490.000000)">
        <g id="Group-4" transform="translate(6.000000, 357.000000)" fill="#2D2D2D" fill-rule="nonzero">
            <g id="Group-4-Copy">
                <g id="noun_1165522_cc" transform="translate(26.000000, 133.000000)">
                    <g id="Group">
                        <path d="M6.00631579,0.137647059 C3.60293352,0.135919495 1.44465524,1.61750976 0.570233604,3.86934677 C-0.304188029,6.12118379 0.284365867,8.68199519 2.05263158,10.3192941 L2.05263158,17.3541176 C2.05242989,17.5943699 2.18698343,17.8141843 2.40034707,17.9221658 C2.61371071,18.0301472 2.86938027,18.0078212 3.06105263,17.8644706 L6.00631579,15.6705882 L8.95368421,17.8665882 C9.14535657,18.0099389 9.40102613,18.0322649 9.61438978,17.9242834 C9.82775342,17.816302 9.96230695,17.5964876 9.96210526,17.3562353 L9.96210526,10.3192941 C11.7306552,8.68173357 12.3190882,6.12039823 11.4441224,3.868359 C10.5691565,1.61631976 8.41008257,0.135045477 6.00631579,0.137647059 Z M6.00631579,10.6051765 C4.15666742,10.6051763 2.48918698,9.48430764 1.78155403,7.7653213 C1.07392107,6.04633496 1.46552203,4.06782931 2.77372206,2.75253983 C4.08192208,1.43725036 6.04903765,1.04425703 7.75764539,1.75684407 C9.46625312,2.46943111 10.579799,4.14723625 10.5789474,6.00776471 C10.575466,8.54621982 8.52992747,10.6028436 6.00631579,10.6051765 Z" id="Shape"></path>
                        <path d="M8.92,4.896 L7.10736842,4.61647059 L6.31578947,2.96470588 C6.26358749,2.85548939 6.15415527,2.7856651 6.03368421,2.78470588 C5.91415799,2.78487031 5.80496726,2.85290121 5.75157895,2.96047059 L4.92631579,4.608 L3.10947368,4.86 C2.99061311,4.87665545 2.89141025,4.95964058 2.85346027,5.07416021 C2.8155103,5.18867984 2.84537269,5.31493978 2.93052632,5.4 L4.23368421,6.69811765 L3.90947368,8.51505882 C3.88828618,8.63388663 3.93589558,8.75452444 4.03233682,8.82638262 C4.12877806,8.8982408 4.25737895,8.90889693 4.36421053,8.85388235 L5.99368421,8.00682353 L7.61052632,8.87717647 C7.71634737,8.93427172 7.84520436,8.92605493 7.94301043,8.85597503 C8.0408165,8.78589512 8.0906443,8.66608088 8.07157895,8.54682353 L7.77473684,6.72564706 L9.09894737,5.45505882 C9.18503351,5.37130446 9.21660855,5.24577244 9.18047932,5.13091454 C9.14435009,5.01605665 9.04673497,4.93164166 8.92842105,4.91294118 L8.92,4.896 Z" id="Shape"></path>
                    </g>
                </g>
            </g>
        </g>
    </g>
</svg>