<?xml version="1.0" encoding="UTF-8" standalone="no"?>
<svg width="100px" height="100px" viewBox="0 0 100 100" version="1.1" xmlns="http://www.w3.org/2000/svg" xmlns:xlink="http://www.w3.org/1999/xlink">
    <!-- Generator: Sketch 3.8.2 (29753) - http://www.bohemiancoding.com/sketch -->
    <title>Artboard 3</title>
    <desc>Created with Sketch.</desc>
    <defs>
        <path d="M43.359375,86.71875 C67.3060966,86.71875 86.71875,67.3060966 86.71875,43.359375 C86.71875,19.4126534 67.3060966,-1.66533454e-14 43.359375,-1.66533454e-14 C19.4126534,-1.66533454e-14 -1.03973924e-13,19.4126534 -1.03973924e-13,43.359375 C-1.03973924e-13,67.3060966 19.4126534,86.71875 43.359375,86.71875 Z" id="path-1"></path>
        <filter x="-50%" y="-50%" width="200%" height="200%" filterUnits="objectBoundingBox" id="filter-2">
            <feMorphology radius="0.25" operator="dilate" in="SourceAlpha" result="shadowSpreadOuter1"></feMorphology>
            <feOffset dx="0" dy="0" in="shadowSpreadOuter1" result="shadowOffsetOuter1"></feOffset>
            <feGaussianBlur stdDeviation="0.5" in="shadowOffsetOuter1" result="shadowBlurOuter1"></feGaussianBlur>
            <feComposite in="shadowBlurOuter1" in2="SourceAlpha" operator="out" result="shadowBlurOuter1"></feComposite>
            <feColorMatrix values="0 0 0 0 0   0 0 0 0 0   0 0 0 0 0  0 0 0 0.5 0" type="matrix" in="shadowBlurOuter1"></feColorMatrix>
        </filter>
    </defs>
    <g id="Symbols" stroke="none" stroke-width="1" fill="none" fill-rule="evenodd">
        <g id="THE-GRID-(Hide-Before-Export)" transform="translate(-1170.000000, -822.000000)"></g>
        <g id="Artboard-3">
            <g id="Icon">
                <rect id="Rectangle-222" fill="#13293D" x="0" y="0" width="100" height="100"></rect>
                <g id="Medal" transform="translate(6.621094, 6.713054)">
                    <g id="Oval-14">
                        <use fill="black" fill-opacity="1" filter="url(#filter-2)" xlink:href="#path-1"></use>
                        <use stroke="#C8C8C8" stroke-width="0.5" fill="#EBB456" fill-rule="evenodd" xlink:href="#path-1"></use>
                    </g>
                    <ellipse id="Oval-14-Copy" fill="#FFCA54" cx="43.3895821" cy="43.328051" rx="37.4023438" ry="37.4023438"></ellipse>
                    <path d="M43.3221329,74.6443833 C60.5810314,74.6443833 74.5721329,60.6532818 74.5721329,43.3943833 C74.5721329,26.1354849 60.5810314,12.1443833 43.3221329,12.1443833 C26.0632345,12.1443833 12.0721329,26.1354849 12.0721329,43.3943833 C12.0721329,60.6532818 26.0632345,74.6443833 43.3221329,74.6443833 Z" id="Oval-14-Copy-2" fill="#FFE6AE"></path>
                </g>
                <ellipse id="Oval-154" stroke="#FFB745" stroke-width="0.5" fill="#FFB745" cx="53.3534797" cy="35.640625" rx="6.83847973" ry="6.890625"></ellipse>
                <path d="M48.9832255,44.5051412 C48.9832255,44.5051412 43.8964228,44.9326672 39.8934603,46.6001059 C37.5646636,47.5701689 38.7560753,48.7355613 37.6907155,50.6835935" id="Path-53" stroke="#FFB745" stroke-width="3.515625" stroke-linecap="round"></path>
                <path d="M51.9748709,42.5354051 C51.9748709,42.5354051 47.3535418,49.5625 47.8245948,55.8520846 C47.3535417,57.8603483 45.8856322,60.8464208 43.8254223,62.8911216 C40.8184758,65.8754321 32.8754758,61.3094175 32.8754758,61.3094175" id="Path-54" stroke="#FFB745" stroke-width="3.515625" stroke-linecap="round"></path>
                <path d="M49.5988157,57.8609201 C49.5988157,57.8609201 56.6860435,57.1719927 60.3153158,61.3460908 C61.7960894,63.049158 61.1460795,66.7713533 61.6339332,69.7903445" id="Path-55" stroke="#FFB745" stroke-width="3.515625" stroke-linecap="round" stroke-linejoin="round"></path>
                <path d="M50.8759226,48.1745296 C50.8759226,48.1745296 53.3319644,52.2810387 58.2232128,52.1985423 C60.0789841,52.1672427 62.474982,50.0487094 64.9427134,49.0468858" id="Path-56" stroke="#FFB745" stroke-width="3.515625" stroke-linecap="round"></path>
            </g>
        </g>
    </g>
</svg>