<?xml version="1.0" encoding="UTF-8"?>
<svg width="427px" height="503px" viewBox="0 0 427 503" version="1.1" xmlns="http://www.w3.org/2000/svg" xmlns:xlink="http://www.w3.org/1999/xlink">
    <!-- Generator: Sketch 48.2 (47327) - http://www.bohemiancoding.com/sketch -->
    <title>Artboard 4 Copy</title>
    <desc>Created with Sketch.</desc>
    <defs>
        <rect id="path-1" x="0" y="0" width="427" height="533"></rect>
        <linearGradient x1="50%" y1="0%" x2="50%" y2="100%" id="linearGradient-3">
            <stop stop-color="#454545" offset="0%"></stop>
            <stop stop-color="#999999" offset="22.6279115%"></stop>
            <stop stop-color="#FFFFFF" offset="100%"></stop>
        </linearGradient>
        <linearGradient x1="100%" y1="50%" x2="30.0573656%" y2="50%" id="linearGradient-4">
            <stop stop-color="#000000" offset="0%"></stop>
            <stop stop-color="#BABABA" offset="22.2177934%"></stop>
            <stop stop-color="#000108" offset="54.6780492%"></stop>
            <stop stop-color="#060606" offset="100%"></stop>
        </linearGradient>
        <ellipse id="path-5" cx="8.0078125" cy="8.02946593" rx="8.0078125" ry="8.02946593"></ellipse>
        <filter x="-15.6%" y="-15.6%" width="131.2%" height="131.1%" filterUnits="objectBoundingBox" id="filter-6">
            <feGaussianBlur stdDeviation="2.5" in="SourceAlpha" result="shadowBlurInner1"></feGaussianBlur>
            <feOffset dx="0" dy="0" in="shadowBlurInner1" result="shadowOffsetInner1"></feOffset>
            <feComposite in="shadowOffsetInner1" in2="SourceAlpha" operator="arithmetic" k2="-1" k3="1" result="shadowInnerInner1"></feComposite>
            <feColorMatrix values="0 0 0 0 1   0 0 0 0 1   0 0 0 0 1  0 0 0 0.048997962 0" type="matrix" in="shadowInnerInner1" result="shadowMatrixInner1"></feColorMatrix>
            <feGaussianBlur stdDeviation="0.5" in="SourceAlpha" result="shadowBlurInner2"></feGaussianBlur>
            <feOffset dx="0" dy="1" in="shadowBlurInner2" result="shadowOffsetInner2"></feOffset>
            <feComposite in="shadowOffsetInner2" in2="SourceAlpha" operator="arithmetic" k2="-1" k3="1" result="shadowInnerInner2"></feComposite>
            <feColorMatrix values="0 0 0 0 0.992214073   0 0 0 0 0.992214073   0 0 0 0 0.992214073  0 0 0 0.160127944 0" type="matrix" in="shadowInnerInner2" result="shadowMatrixInner2"></feColorMatrix>
            <feGaussianBlur stdDeviation="0.5" in="SourceAlpha" result="shadowBlurInner3"></feGaussianBlur>
            <feOffset dx="0" dy="-1" in="shadowBlurInner3" result="shadowOffsetInner3"></feOffset>
            <feComposite in="shadowOffsetInner3" in2="SourceAlpha" operator="arithmetic" k2="-1" k3="1" result="shadowInnerInner3"></feComposite>
            <feColorMatrix values="0 0 0 0 1   0 0 0 0 1   0 0 0 0 1  0 0 0 0.438207654 0" type="matrix" in="shadowInnerInner3" result="shadowMatrixInner3"></feColorMatrix>
            <feMerge>
                <feMergeNode in="shadowMatrixInner1"></feMergeNode>
                <feMergeNode in="shadowMatrixInner2"></feMergeNode>
                <feMergeNode in="shadowMatrixInner3"></feMergeNode>
            </feMerge>
        </filter>
        <ellipse id="path-7" cx="6.00585937" cy="6.02209945" rx="6.00585937" ry="6.02209945"></ellipse>
        <ellipse id="path-8" cx="8.0078125" cy="8.02946593" rx="8.0078125" ry="8.02946593"></ellipse>
        <filter x="-15.6%" y="-15.6%" width="131.2%" height="131.1%" filterUnits="objectBoundingBox" id="filter-9">
            <feGaussianBlur stdDeviation="2.5" in="SourceAlpha" result="shadowBlurInner1"></feGaussianBlur>
            <feOffset dx="0" dy="0" in="shadowBlurInner1" result="shadowOffsetInner1"></feOffset>
            <feComposite in="shadowOffsetInner1" in2="SourceAlpha" operator="arithmetic" k2="-1" k3="1" result="shadowInnerInner1"></feComposite>
            <feColorMatrix values="0 0 0 0 1   0 0 0 0 1   0 0 0 0 1  0 0 0 0.048997962 0" type="matrix" in="shadowInnerInner1" result="shadowMatrixInner1"></feColorMatrix>
            <feGaussianBlur stdDeviation="0.5" in="SourceAlpha" result="shadowBlurInner2"></feGaussianBlur>
            <feOffset dx="0" dy="1" in="shadowBlurInner2" result="shadowOffsetInner2"></feOffset>
            <feComposite in="shadowOffsetInner2" in2="SourceAlpha" operator="arithmetic" k2="-1" k3="1" result="shadowInnerInner2"></feComposite>
            <feColorMatrix values="0 0 0 0 0.992214073   0 0 0 0 0.992214073   0 0 0 0 0.992214073  0 0 0 0.160127944 0" type="matrix" in="shadowInnerInner2" result="shadowMatrixInner2"></feColorMatrix>
            <feGaussianBlur stdDeviation="0.5" in="SourceAlpha" result="shadowBlurInner3"></feGaussianBlur>
            <feOffset dx="0" dy="-1" in="shadowBlurInner3" result="shadowOffsetInner3"></feOffset>
            <feComposite in="shadowOffsetInner3" in2="SourceAlpha" operator="arithmetic" k2="-1" k3="1" result="shadowInnerInner3"></feComposite>
            <feColorMatrix values="0 0 0 0 1   0 0 0 0 1   0 0 0 0 1  0 0 0 0.438207654 0" type="matrix" in="shadowInnerInner3" result="shadowMatrixInner3"></feColorMatrix>
            <feMerge>
                <feMergeNode in="shadowMatrixInner1"></feMergeNode>
                <feMergeNode in="shadowMatrixInner2"></feMergeNode>
                <feMergeNode in="shadowMatrixInner3"></feMergeNode>
            </feMerge>
        </filter>
        <ellipse id="path-10" cx="6.00585938" cy="6.02209945" rx="6.00585938" ry="6.02209945"></ellipse>
        <ellipse id="path-11" cx="5.00488281" cy="5.01841621" rx="5.00488281" ry="5.01841621"></ellipse>
        <filter x="-25.0%" y="-24.9%" width="150.0%" height="149.8%" filterUnits="objectBoundingBox" id="filter-12">
            <feGaussianBlur stdDeviation="2.5" in="SourceAlpha" result="shadowBlurInner1"></feGaussianBlur>
            <feOffset dx="0" dy="0" in="shadowBlurInner1" result="shadowOffsetInner1"></feOffset>
            <feComposite in="shadowOffsetInner1" in2="SourceAlpha" operator="arithmetic" k2="-1" k3="1" result="shadowInnerInner1"></feComposite>
            <feColorMatrix values="0 0 0 0 1   0 0 0 0 1   0 0 0 0 1  0 0 0 0.048997962 0" type="matrix" in="shadowInnerInner1" result="shadowMatrixInner1"></feColorMatrix>
            <feGaussianBlur stdDeviation="0.5" in="SourceAlpha" result="shadowBlurInner2"></feGaussianBlur>
            <feOffset dx="0" dy="1" in="shadowBlurInner2" result="shadowOffsetInner2"></feOffset>
            <feComposite in="shadowOffsetInner2" in2="SourceAlpha" operator="arithmetic" k2="-1" k3="1" result="shadowInnerInner2"></feComposite>
            <feColorMatrix values="0 0 0 0 0.992214073   0 0 0 0 0.992214073   0 0 0 0 0.992214073  0 0 0 0.160127944 0" type="matrix" in="shadowInnerInner2" result="shadowMatrixInner2"></feColorMatrix>
            <feGaussianBlur stdDeviation="0.5" in="SourceAlpha" result="shadowBlurInner3"></feGaussianBlur>
            <feOffset dx="0" dy="-1" in="shadowBlurInner3" result="shadowOffsetInner3"></feOffset>
            <feComposite in="shadowOffsetInner3" in2="SourceAlpha" operator="arithmetic" k2="-1" k3="1" result="shadowInnerInner3"></feComposite>
            <feColorMatrix values="0 0 0 0 1   0 0 0 0 1   0 0 0 0 1  0 0 0 0.438207654 0" type="matrix" in="shadowInnerInner3" result="shadowMatrixInner3"></feColorMatrix>
            <feMerge>
                <feMergeNode in="shadowMatrixInner1"></feMergeNode>
                <feMergeNode in="shadowMatrixInner2"></feMergeNode>
                <feMergeNode in="shadowMatrixInner3"></feMergeNode>
            </feMerge>
        </filter>
        <ellipse id="path-13" cx="8.0078125" cy="8.02946593" rx="8.0078125" ry="8.02946593"></ellipse>
        <filter x="-15.6%" y="-15.6%" width="131.2%" height="131.1%" filterUnits="objectBoundingBox" id="filter-14">
            <feGaussianBlur stdDeviation="2.5" in="SourceAlpha" result="shadowBlurInner1"></feGaussianBlur>
            <feOffset dx="0" dy="0" in="shadowBlurInner1" result="shadowOffsetInner1"></feOffset>
            <feComposite in="shadowOffsetInner1" in2="SourceAlpha" operator="arithmetic" k2="-1" k3="1" result="shadowInnerInner1"></feComposite>
            <feColorMatrix values="0 0 0 0 1   0 0 0 0 1   0 0 0 0 1  0 0 0 0.048997962 0" type="matrix" in="shadowInnerInner1" result="shadowMatrixInner1"></feColorMatrix>
            <feGaussianBlur stdDeviation="0.5" in="SourceAlpha" result="shadowBlurInner2"></feGaussianBlur>
            <feOffset dx="0" dy="1" in="shadowBlurInner2" result="shadowOffsetInner2"></feOffset>
            <feComposite in="shadowOffsetInner2" in2="SourceAlpha" operator="arithmetic" k2="-1" k3="1" result="shadowInnerInner2"></feComposite>
            <feColorMatrix values="0 0 0 0 0.992214073   0 0 0 0 0.992214073   0 0 0 0 0.992214073  0 0 0 0.160127944 0" type="matrix" in="shadowInnerInner2" result="shadowMatrixInner2"></feColorMatrix>
            <feGaussianBlur stdDeviation="0.5" in="SourceAlpha" result="shadowBlurInner3"></feGaussianBlur>
            <feOffset dx="0" dy="-1" in="shadowBlurInner3" result="shadowOffsetInner3"></feOffset>
            <feComposite in="shadowOffsetInner3" in2="SourceAlpha" operator="arithmetic" k2="-1" k3="1" result="shadowInnerInner3"></feComposite>
            <feColorMatrix values="0 0 0 0 1   0 0 0 0 1   0 0 0 0 1  0 0 0 0.438207654 0" type="matrix" in="shadowInnerInner3" result="shadowMatrixInner3"></feColorMatrix>
            <feMerge>
                <feMergeNode in="shadowMatrixInner1"></feMergeNode>
                <feMergeNode in="shadowMatrixInner2"></feMergeNode>
                <feMergeNode in="shadowMatrixInner3"></feMergeNode>
            </feMerge>
        </filter>
        <path d="M77.9087002,0 L30.9760333,1.13965223e-13 C13.0566835,1.13965223e-13 0,13.280992 0,30.6267756 L0,772.334632 C0,794.951607 20.1749563,814.990792 42.9877521,814.990792 L332.378459,814.990792 C354.353523,814.990792 375.366211,794.795954 375.366211,772.334632 L375.366211,32.631673 C375.366211,11.841512 361.182451,0.123634465 344.390178,1.13965223e-13 L295.556776,1.13965223e-13 C295.094589,0.0824229765 293.523493,0.123634465 292.845442,0.123634465 C288.309598,0.123634465 286.858011,4.07636365 286.858011,13.280992 C286.858011,22.4856204 276.19133,30.2640509 268.390086,30.2640509 L236.684113,30.2640509 L119.291393,30.2640509 L105.685139,30.2640509 C101.976837,30.2640509 88.3757494,25.9784972 87.270689,13.280992 C86.1656286,0.583486884 86.0085471,0.123634465 79.6190584,0.123634465 C78.9410069,0.123634465 78.3708875,0.0824229765 77.9087002,0 Z" id="path-15"></path>
        <linearGradient x1="50%" y1="-21.4810075%" x2="50%" y2="100%" id="linearGradient-17">
            <stop stop-color="#2AF598" offset="0%"></stop>
            <stop stop-color="#08AEEA" offset="100%"></stop>
        </linearGradient>
        <rect id="path-18" x="0" y="0" width="375.366211" height="814.990792"></rect>
        <rect id="path-19" x="20.0195312" y="55.2025783" width="119.724648" height="41.1510129" rx="7"></rect>
        <rect id="path-20" x="157.15332" y="55.2025783" width="119.724648" height="41.1510129" rx="7"></rect>
        <linearGradient x1="100%" y1="50%" x2="0%" y2="50%" id="linearGradient-21">
            <stop stop-color="#FFFFFF" stop-opacity="0" offset="0%"></stop>
            <stop stop-color="#FFFFFF" stop-opacity="0.55" offset="100%"></stop>
        </linearGradient>
    </defs>
    <g id="Page-1" stroke="none" stroke-width="1" fill="none" fill-rule="evenodd">
        <g id="Artboard-4-Copy">
            <g id="iPhone-X-Mockup">
                <mask id="mask-2" fill="white">
                    <use xlink:href="#path-1"></use>
                </mask>
                <g id="Mask"></g>
                <g mask="url(#mask-2)">
                    <g transform="translate(2.000000, 3.000000)">
                        <g id="phone">
                            <path d="M57.5450304,1.00368324 L365.868056,1.00368324 C395.438002,1.00368324 419.40918,25.3483642 419.40918,55.37905 L419.40918,799.759071 C419.40918,829.789757 395.438002,854.134438 365.868056,854.134438 L57.5450304,854.134438 C27.975084,854.134438 4.00390625,829.789757 4.00390625,799.759071 L4.00390625,55.37905 C4.00390625,25.3483642 27.975084,1.00368324 57.5450304,1.00368324 Z" id="body" fill="#000105"></path>
                            <g id="frame" transform="translate(4.003906, 0.000000)">
                                <path d="M363.217027,0 L52.1882463,0 C37.6671368,0.938865527 24.274961,7.96464822 12.0117187,21.0773481 C19.8983771,13.7778059 33.9650373,4.00985257 52.5625604,4.00985257 C251.15043,4.00985257 354.577147,4.00985257 362.842713,4.00985257 C381.440236,4.00985257 395.506896,13.7778059 403.393555,21.0773481 C391.130312,7.96464822 377.738137,0.938865527 363.217027,0 Z" id="reflect-frame-top" fill-opacity="0.649999976" fill="url(#linearGradient-3)" opacity="0.595561594"></path>
                                <path d="M407.172536,791.294917 L407.172536,59.8284711 C407.172536,40.2025978 400.369801,32.9474629 396.311614,28.2887786 C392.253428,23.6300943 392.0807,21.2539563 397.911616,24.7713675 C403.742532,28.2887786 415.405273,38.5334317 415.405273,59.8284711 L415.405273,791.294917 C415.405273,812.589957 403.742532,822.83461 397.911616,826.352021 C392.0807,829.869432 392.253428,827.493294 396.311614,822.83461 C400.369801,818.175926 407.172536,810.920791 407.172536,791.294917 Z" id="reflect-frame-right" fill="url(#linearGradient-4)" opacity="0.650000036"></path>
                                <path d="M13.7887473,791.294917 L13.7887473,59.8284711 C13.7887473,40.2025978 6.98601196,32.9474629 2.92782532,28.2887786 C-1.13036133,23.6300943 -1.3030888,21.2539563 4.52782722,24.7713675 C10.3587432,28.2887786 22.0214844,38.5334317 22.0214844,59.8284711 L22.0214844,791.294917 C22.0214844,812.589957 10.3587432,822.83461 4.52782722,826.352021 C-1.3030888,829.869432 -1.13036133,827.493294 2.92782532,822.83461 C6.98601196,818.175926 13.7887473,810.920791 13.7887473,791.294917 Z" id="reflect-frame-left" fill="url(#linearGradient-4)" opacity="0.650000036" transform="translate(11.010742, 425.561694) scale(-1, 1) translate(-11.010742, -425.561694) "></path>
                            </g>
                            <g id="controls" transform="translate(0.000000, 113.416206)" fill="#000000">
                                <rect id="silent" x="0" y="0" width="8.0078125" height="34.1252302" rx="2"></rect>
                                <rect id="vol+" x="0" y="60.2209945" width="8.0078125" height="64.2357274" rx="2"></rect>
                                <rect id="power" x="415.405273" y="40.1473297" width="8.0078125" height="80.2946593" rx="2"></rect>
                                <rect id="vol-" x="0" y="140.515654" width="8.0078125" height="64.2357274" rx="2"></rect>
                            </g>
                            <g id="f-cam-2" transform="translate(130.126953, 24.088398)">
                                <g id="oval-shade" opacity="0.49609375">
                                    <use fill="#000000" fill-rule="evenodd" xlink:href="#path-5"></use>
                                    <use fill="black" fill-opacity="1" filter="url(#filter-6)" xlink:href="#path-5"></use>
                                </g>
                                <ellipse id="oval" fill="#141414" cx="8.0078125" cy="8.02946593" rx="5.71986607" ry="5.73533281"></ellipse>
                                <g id="front-facing-camera" opacity="0.502038043" transform="translate(2.001953, 2.007366)">
                                    <g>
                                        <use fill="#334B80" fill-rule="evenodd" xlink:href="#path-7"></use>
                                        <ellipse stroke="#192E65" stroke-width="2" cx="6.00585937" cy="6.02209945" rx="5.00585937" ry="5.02209945"></ellipse>
                                        <use stroke="#272149" stroke-width="1" xlink:href="#path-7"></use>
                                    </g>
                                    <ellipse id="middle" fill="#14285E" cx="6.00585937" cy="6.02209945" rx="1.63796165" ry="1.64239076"></ellipse>
                                    <ellipse id="glare" fill="#92B6D7" cx="4.36789773" cy="4.37970869" rx="1.09197443" ry="1.09492717"></ellipse>
                                    <ellipse id="reflection" fill="#516C9D" cx="7.64382102" cy="7.66449021" rx="1.09197443" ry="1.09492717"></ellipse>
                                </g>
                            </g>
                            <g id="f-cam-1" transform="translate(161.157227, 24.088398)">
                                <g id="oval-shade" opacity="0.49609375">
                                    <use fill="#000000" fill-rule="evenodd" xlink:href="#path-8"></use>
                                    <use fill="black" fill-opacity="1" filter="url(#filter-9)" xlink:href="#path-8"></use>
                                </g>
                                <ellipse id="oval" fill="#141414" cx="8.0078125" cy="8.02946593" rx="5.71986607" ry="5.73533281"></ellipse>
                                <g id="front-facing-camera" opacity="0.498867754" transform="translate(2.001953, 2.007366)">
                                    <g>
                                        <use fill="#334B80" fill-rule="evenodd" xlink:href="#path-10"></use>
                                        <ellipse stroke="#192E65" stroke-width="2" cx="6.00585938" cy="6.02209945" rx="5.00585938" ry="5.02209945"></ellipse>
                                        <use stroke="#272149" stroke-width="1" xlink:href="#path-10"></use>
                                    </g>
                                    <ellipse id="middle" fill="#14285E" cx="6.00585937" cy="6.02209945" rx="1.63796165" ry="1.64239076"></ellipse>
                                    <ellipse id="glare" fill="#92B6D7" cx="4.36789773" cy="4.37970869" rx="1.09197443" ry="1.09492717"></ellipse>
                                    <ellipse id="reflection" fill="#516C9D" cx="7.64382102" cy="7.66449021" rx="1.09197443" ry="1.09492717"></ellipse>
                                </g>
                            </g>
                            <g id="proximity" transform="translate(246.240234, 27.099448)">
                                <g id="oval-shade" opacity="0.49609375">
                                    <use fill="#000000" fill-rule="evenodd" xlink:href="#path-11"></use>
                                    <use fill="black" fill-opacity="1" filter="url(#filter-12)" xlink:href="#path-11"></use>
                                </g>
                                <ellipse id="oval" fill="#141414" cx="5.00488281" cy="5.01841621" rx="3.57491629" ry="3.584583"></ellipse>
                                <ellipse id="oval-innershade" fill="#141414" cx="6.0773577" cy="5.37687451" rx="1.07247489" ry="1.0753749"></ellipse>
                            </g>
                            <g id="sensor" transform="translate(275.268555, 24.088398)">
                                <ellipse id="oval" fill="#181819" cx="8.0078125" cy="8.02946593" rx="8.0078125" ry="8.02946593"></ellipse>
                                <g id="oval-shade" opacity="0.49609375">
                                    <use fill="#000000" fill-rule="evenodd" xlink:href="#path-13"></use>
                                    <use fill="black" fill-opacity="1" filter="url(#filter-14)" xlink:href="#path-13"></use>
                                </g>
                                <g id="iris-recognition-led" opacity="0.695029438" transform="translate(2.001953, 2.007366)">
                                    <ellipse fill="#1E1939" cx="6.00585937" cy="6.02209945" rx="6.00585937" ry="6.02209945"></ellipse>
                                    <ellipse id="gutter" fill="#342B64" cx="6.00585937" cy="6.02209945" rx="3.82191051" ry="3.8322451"></ellipse>
                                    <ellipse id="reflection" fill="#51439F" cx="6.00585937" cy="6.02209945" rx="1.63796165" ry="1.64239076"></ellipse>
                                    <ellipse id="glare" fill="#FFFFFF" opacity="0.340000004" cx="4.36789773" cy="4.37970869" rx="1.09197443" ry="1.09492717"></ellipse>
                                </g>
                            </g>
                            <g id="earpiece" transform="translate(211.228516, 33.106814) scale(-1, 1) translate(-211.228516, -33.106814) translate(188.228516, 29.106814)" fill="#181819">
                                <rect id="earpiece-hole" x="0" y="0" width="45.0439453" height="7.02578269" rx="3.51289134"></rect>
                            </g>
                        </g>
                        <g id="Screen" transform="translate(24.023437, 20.073665)">
                            <mask id="mask-16" fill="white">
                                <use xlink:href="#path-15"></use>
                            </mask>
                            <use id="Screen-Mask" fill="#E3ECF6" xlink:href="#path-15"></use>
                            <g id="Group-2" mask="url(#mask-16)">
                                <g transform="translate(0.000000, -17.403315)">
                                    <g id="Rectangle-5">
                                        <use fill="url(#linearGradient-17)" fill-rule="evenodd" xlink:href="#path-18"></use>
                                        <rect stroke="#979797" stroke-width="1" x="0.5" y="0.5" width="374.366211" height="813.990792"></rect>
                                    </g>
                                    <g id="Group-6" stroke-width="1" fill-rule="evenodd" transform="translate(30.029297, 418.572744)">
                                        <g id="Group-4-Copy-2" fill="#FFFFFF" stroke="#D3D3D3" stroke-width="0.5">
                                            <g id="Group-2-Copy">
                                                <path d="M24.6458056,-6.69723627e-16 L77.4538038,-2.56840224e-15 C84.0847637,2.10298573e-15 87.934267,0.974668917 91.3564893,2.80489339 C94.7787115,4.63511786 97.4644915,7.32089789 99.294716,10.7431201 C101.12494,14.1653423 102.099609,18.0148456 102.099609,24.6458056 L102.099609,29.5530894 C102.099609,36.1840494 101.12494,40.0335527 99.294716,43.4557749 C97.4644915,46.8779971 94.7787115,49.5637772 91.3564893,51.3940016 C87.934267,53.2242261 84.0847637,54.198895 77.4538038,54.198895 L24.6458056,54.198895 C18.0148456,54.198895 14.1653423,53.2242261 10.7431201,51.3940016 C7.32089789,49.5637772 4.63511786,46.8779971 2.80489339,43.4557749 C0.974668917,40.0335527 3.65575975e-16,36.1840494 -4.46482418e-16,29.5530894 L-3.10623126e-15,24.6458056 C-3.91828965e-15,18.0148456 0.974668917,14.1653423 2.80489339,10.7431201 C4.63511786,7.32089789 7.32089789,4.63511786 10.7431201,2.80489339 C14.1653423,0.974668917 18.0148456,5.48363962e-16 24.6458056,-6.69723627e-16 Z" id="Combined-Shape"></path>
                                            </g>
                                        </g>
                                        <g id="Group-5" transform="translate(25.024414, 23.084715)">
                                            <ellipse id="Oval-2" fill="#C4C3C3" cx="5.00488281" cy="5.01841621" rx="5.00488281" ry="5.01841621"></ellipse>
                                            <ellipse id="Oval-2-Copy" fill="#D8D8D8" cx="26.0253906" cy="5.01841621" rx="5.00488281" ry="5.01841621"></ellipse>
                                            <ellipse id="Oval-2-Copy-2" fill="#C4C3C3" cx="47.0458984" cy="5.01841621" rx="5.00488281" ry="5.01841621"></ellipse>
                                        </g>
                                    </g>
                                    <g id="Group-2" stroke-width="1" fill-rule="evenodd" transform="translate(30.029297, 114.456722)">
                                        <path d="M26.9207946,-1.08763232e-15 L278.377057,1.08763232e-15 C287.738004,-6.31945701e-16 291.132509,0.974668917 294.554731,2.80489339 C297.976954,4.63511786 300.662734,7.32089789 302.492958,10.7431201 C304.323183,14.1653423 305.297852,17.5598478 305.297852,26.9207946 L305.297852,54.3775479 C305.297852,63.7384947 304.323183,67.1330002 302.492958,70.5552224 C300.662734,73.9774447 297.976954,76.6632247 294.554731,78.4934492 C291.132509,80.3236736 287.738004,81.2983425 278.377057,81.2983425 L26.9207946,81.2983425 C17.5598478,81.2983425 14.1653423,80.3236736 10.7431201,78.4934492 C7.32089789,76.6632247 4.63511786,73.9774447 2.80489339,70.5552224 C0.974668917,67.1330002 4.21297134e-16,63.7384947 -7.25088215e-16,54.3775479 L7.25088215e-16,26.9207946 C-4.21297134e-16,17.5598478 0.974668917,14.1653423 2.80489339,10.7431201 C4.63511786,7.32089789 7.32089789,4.63511786 10.7431201,2.80489339 C14.1653423,0.974668917 17.5598478,6.31945701e-16 26.9207946,-1.08763232e-15 Z" id="Combined-Shape" stroke="#D3D3D3" stroke-width="0.5" fill="#FFFFFF"></path>
                                        <text id="I’m-Talky-and-my-mis" font-family="SFProDisplay-Medium, SF Pro Display" font-size="17" font-weight="400" letter-spacing="0.0540000014" fill="#6E6E6E">
                                            <tspan x="19.9541079" y="32.1565378">I’m Talky and my mission is to make </tspan>
                                            <tspan x="19.9541079" y="52.1565378">you a better public speaker!</tspan>
                                        </text>
                                    </g>
                                    <g id="Group-2-Copy" stroke-width="1" fill-rule="evenodd" transform="translate(30.029297, 327.237569)">
                                        <path d="M26.9207946,-1.08763232e-15 L278.377057,1.08763232e-15 C287.738004,-6.31945701e-16 291.132509,0.974668917 294.554731,2.80489339 C297.976954,4.63511786 300.662734,7.32089789 302.492958,10.7431201 C304.323183,14.1653423 305.297852,17.5598478 305.297852,26.9207946 L305.297852,54.3775479 C305.297852,63.7384947 304.323183,67.1330002 302.492958,70.5552224 C300.662734,73.9774447 297.976954,76.6632247 294.554731,78.4934492 C291.132509,80.3236736 287.738004,81.2983425 278.377057,81.2983425 L26.9207946,81.2983425 C17.5598478,81.2983425 14.1653423,80.3236736 10.7431201,78.4934492 C7.32089789,76.6632247 4.63511786,73.9774447 2.80489339,70.5552224 C0.974668917,67.1330002 4.21297134e-16,63.7384947 -7.25088215e-16,54.3775479 L7.25088215e-16,26.9207946 C-4.21297134e-16,17.5598478 0.974668917,14.1653423 2.80489339,10.7431201 C4.63511786,7.32089789 7.32089789,4.63511786 10.7431201,2.80489339 C14.1653423,0.974668917 17.5598478,6.31945701e-16 26.9207946,-1.08763232e-15 Z" id="Combined-Shape" stroke="#D3D3D3" stroke-width="0.5" fill="#FFFFFF"></path>
                                        <text id="Awesome!-I-will-star" font-family="SFProDisplay-Medium, SF Pro Display" font-size="17" font-weight="400" letter-spacing="0.0540000014" fill="#6E6E6E">
                                            <tspan x="19.9541079" y="32.1565378">Awesome! I will start analyzing your </tspan>
                                            <tspan x="19.9541079" y="52.1565378">speech.</tspan>
                                        </text>
                                    </g>
                                    <g id="Group-2-Copy-2" stroke-width="1" fill-rule="evenodd" transform="translate(30.029297, 205.791897)">
                                        <path d="M26.9207946,2.46508136e-15 L278.377057,4.640346e-15 C287.738004,2.92076798e-15 291.132509,0.974668917 294.554731,2.80489339 C297.976954,4.63511786 300.662734,7.32089789 302.492958,10.7431201 C304.323183,14.1653423 305.297852,17.5598478 305.297852,26.9207946 L305.297852,84.4880452 C305.297852,93.8489919 304.323183,97.2434974 302.492958,100.66572 C300.662734,104.087942 297.976954,106.773722 294.554731,108.603946 C291.132509,110.434171 287.738004,111.40884 278.377057,111.40884 L26.9207946,111.40884 C17.5598478,111.40884 14.1653423,110.434171 10.7431201,108.603946 C7.32089789,106.773722 4.63511786,104.087942 2.80489339,100.66572 C0.974668917,97.2434974 4.21297134e-16,93.8489919 -7.25088215e-16,84.4880452 L7.25088215e-16,26.9207946 C-4.21297134e-16,17.5598478 0.974668917,14.1653423 2.80489339,10.7431201 C4.63511786,7.32089789 7.32089789,4.63511786 10.7431201,2.80489339 C14.1653423,0.974668917 17.5598478,4.18465938e-15 26.9207946,2.46508136e-15 Z" id="Combined-Shape" stroke="#D3D3D3" stroke-width="0.5" fill="#FFFFFF"></path>
                                        <g id="Rectangle-4">
                                            <use fill="#FFFEFE" fill-rule="evenodd" xlink:href="#path-19"></use>
                                            <rect stroke="#D8D8D8" stroke-width="1" x="20.5195312" y="55.7025783" width="118.724648" height="40.1510129" rx="7"></rect>
                                        </g>
                                        <g id="Rectangle-4-Copy">
                                            <use fill="#FFFEFE" fill-rule="evenodd" xlink:href="#path-20"></use>
                                            <rect stroke="#D8D8D8" stroke-width="1" x="157.65332" y="55.7025783" width="118.724648" height="40.1510129" rx="7"></rect>
                                        </g>
                                        <text id="Hit-record-whenever" font-family="SFProDisplay-Medium, SF Pro Display" font-size="17" font-weight="400" letter-spacing="0.0540000014" fill="#6E6E6E">
                                            <tspan x="20.0195312" y="32.1031308">Hit record whenever you’re ready!</tspan>
                                        </text>
                                        <g id="Group-2" transform="translate(53.051758, 67.246777)" fill="#6E6E6E" font-family="SFProDisplay-Medium, SF Pro Display" font-size="17" font-weight="400" letter-spacing="0.0540000014">
                                            <text id="Record">
                                                <tspan x="0" y="16.0368324">Record</tspan>
                                            </text>
                                        </g>
                                        <g id="Group-3" transform="translate(197.192383, 67.246777)" fill="#6E6E6E" font-family="SFProDisplay-Medium, SF Pro Display" font-size="17" font-weight="400" letter-spacing="0.0540000014">
                                            <g id="Group-2-Copy-3">
                                                <text id="Done">
                                                    <tspan x="0" y="16.0368324">Done</tspan>
                                                </text>
                                            </g>
                                        </g>
                                    </g>
                                </g>
                            </g>
                        </g>
                        <g id="screen-reflect" transform="translate(23.022461, 21.077348)">
                            <g id="Group" transform="translate(1.000977, 0.000000)" fill="url(#linearGradient-21)" opacity="0.300000012">
                                <path d="M362.288202,784.132627 L362.288202,19.6749168 C362.288202,12.5510395 358.903861,5.5903916 352.34375,0 C357.399952,1.95794796 360.66707,2.16970234 364.163715,5.72264034 C371.073591,12.7441675 375.366211,21.7702655 375.366211,29.2780844 L375.366211,771.51841 C375.366211,780.803812 370.949793,789.376776 365.804636,796.184473 C362.309012,800.80963 357.342684,804.97532 353.011882,807.105899 C359.259188,802.133989 362.288202,791.256504 362.288202,784.132627 Z" id="reflect-glass-right"></path>
                                <path d="M13.0780088,783.12271 C13.0780088,790.246587 15.7604933,802.014145 22.0077991,806.986055 C17.6769977,804.855475 14.699141,801.654023 11.2024955,798.101342 C4.29262,791.079815 0,781.027618 0,773.519542 L0,28.2681671 C0,20.7603482 4.29262,11.7342502 11.2024955,4.71272304 C14.699141,1.15978504 17.9662585,1.95794796 23.0224609,0 C16.4623499,5.5903916 13.0780088,11.5411222 13.0780088,18.6649995 L13.0780088,783.12271 Z" id="reflect-glass-left"></path>
                            </g>
                            <g id="status-bar-white" transform="translate(0.000000, 4.014733)">
                                <rect id="bounds" x="0" y="0" width="375" height="20"></rect>
                                <path d="M347.272727,9 L350,9 L345.090909,15 L346.727273,10.5 L346.090909,10.5 L346.090909,9 L347.173554,9 L348.363636,5 L344,10.5 L346.727273,10.5 L348.090909,10.5 L348.090909,9 L347.272727,9 Z" id="lightning" fill="#FFFFFF" fill-rule="evenodd"></path>
                                <g id="battery" stroke-width="1" fill-rule="evenodd" transform="translate(315.000000, 4.000000)">
                                    <rect id="inside" fill="#4CD964" x="2" y="2.5" width="20" height="7.5" rx="1"></rect>
                                    <path d="M25,4.56300874 C25.8626136,4.78503014 26.5,5.56808029 26.5,6.5 C26.5,7.43191971 25.8626136,8.21496986 25,8.43699126 L25,4.56300874 Z" id="side" fill="#FFFFFF"></path>
                                    <path d="M2,0.5 L22,0.5 C23.1045695,0.5 24,1.3954305 24,2.5 L24,10 C24,11.1045695 23.1045695,12 22,12 L2,12 C0.8954305,12 1.3527075e-16,11.1045695 0,10 L0,2.5 C-1.3527075e-16,1.3954305 0.8954305,0.5 2,0.5 Z M2,1.5 C1.44771525,1.5 1,1.94771525 1,2.5 L1,10 C1,10.5522847 1.44771525,11 2,11 L22,11 C22.5522847,11 23,10.5522847 23,10 L23,2.5 C23,1.94771525 22.5522847,1.5 22,1.5 L2,1.5 Z" id="frame" fill="#FFFFFF"></path>
                                </g>
                                <path d="M48.7824856,8.28248558 C50.5016474,6.56332372 52.8766474,5.5 55.5,5.5 C58.1233526,5.5 60.4983526,6.56332372 62.2175144,8.28248558 L61.1568542,9.34314575 C59.709139,7.8954305 57.709139,7 55.5,7 C53.290861,7 51.290861,7.8954305 49.8431458,9.34314575 L48.7824856,8.28248558 Z M50.9038059,10.4038059 C52.0800746,9.22753728 53.7050746,8.5 55.5,8.5 C57.2949254,8.5 58.9199254,9.22753728 60.0961941,10.4038059 L59.0355339,11.4644661 C58.1307119,10.5596441 56.8807119,10 55.5,10 C54.1192881,10 52.8692881,10.5596441 51.9644661,11.4644661 L50.9038059,10.4038059 Z M53.0251263,12.5251263 C53.6585017,11.8917508 54.5335017,11.5 55.5,11.5 C56.4664983,11.5 57.3414983,11.8917508 57.9748737,12.5251263 L55.5,15 L53.0251263,12.5251263 Z" id="wifi" fill="#FFFFFF" fill-rule="evenodd"></path>
                                <g id="signal" stroke-width="1" fill-rule="evenodd" transform="translate(26.000000, 5.000000)" fill="#FFFFFF">
                                    <rect id="4" x="13.5" y="0" width="3" height="10" rx="1"></rect>
                                    <rect id="3" x="9" y="2" width="3" height="8" rx="1"></rect>
                                    <rect id="2" x="4.5" y="4" width="3" height="6" rx="1"></rect>
                                    <rect id="1" x="0" y="5" width="3" height="5" rx="1"></rect>
                                </g>
                            </g>
                        </g>
                    </g>
                </g>
            </g>
        </g>
    </g>
</svg>