<?xml version="1.0" encoding="UTF-8"?>
<svg width="423px" height="852px" viewBox="0 0 423 852" version="1.1" xmlns="http://www.w3.org/2000/svg" xmlns:xlink="http://www.w3.org/1999/xlink">
    <!-- Generator: Sketch 48.2 (47327) - http://www.bohemiancoding.com/sketch -->
    <title>iPhone-X-Mockup</title>
    <desc>Created with Sketch.</desc>
    <defs>
        <linearGradient x1="50%" y1="0%" x2="50%" y2="100%" id="linearGradient-1">
            <stop stop-color="#454545" offset="0%"></stop>
            <stop stop-color="#999999" offset="22.6279115%"></stop>
            <stop stop-color="#FFFFFF" offset="100%"></stop>
        </linearGradient>
        <linearGradient x1="50%" y1="26.9114283%" x2="50%" y2="-43.6051491%" id="linearGradient-2">
            <stop stop-color="#FFFFFF" stop-opacity="0" offset="0%"></stop>
            <stop stop-color="#FFFFFF" stop-opacity="0.55" offset="100%"></stop>
        </linearGradient>
        <linearGradient x1="100%" y1="50%" x2="30.0573656%" y2="50%" id="linearGradient-3">
            <stop stop-color="#000000" offset="0%"></stop>
            <stop stop-color="#BABABA" offset="22.2177934%"></stop>
            <stop stop-color="#000108" offset="54.6780492%"></stop>
            <stop stop-color="#060606" offset="100%"></stop>
        </linearGradient>
        <circle id="path-4" cx="8" cy="8" r="8"></circle>
        <filter x="-15.6%" y="-15.6%" width="131.2%" height="131.2%" filterUnits="objectBoundingBox" id="filter-5">
            <feGaussianBlur stdDeviation="2.5" in="SourceAlpha" result="shadowBlurInner1"></feGaussianBlur>
            <feOffset dx="0" dy="0" in="shadowBlurInner1" result="shadowOffsetInner1"></feOffset>
            <feComposite in="shadowOffsetInner1" in2="SourceAlpha" operator="arithmetic" k2="-1" k3="1" result="shadowInnerInner1"></feComposite>
            <feColorMatrix values="0 0 0 0 1   0 0 0 0 1   0 0 0 0 1  0 0 0 0.048997962 0" type="matrix" in="shadowInnerInner1" result="shadowMatrixInner1"></feColorMatrix>
            <feGaussianBlur stdDeviation="0.5" in="SourceAlpha" result="shadowBlurInner2"></feGaussianBlur>
            <feOffset dx="0" dy="1" in="shadowBlurInner2" result="shadowOffsetInner2"></feOffset>
            <feComposite in="shadowOffsetInner2" in2="SourceAlpha" operator="arithmetic" k2="-1" k3="1" result="shadowInnerInner2"></feComposite>
            <feColorMatrix values="0 0 0 0 0.992214073   0 0 0 0 0.992214073   0 0 0 0 0.992214073  0 0 0 0.160127944 0" type="matrix" in="shadowInnerInner2" result="shadowMatrixInner2"></feColorMatrix>
            <feGaussianBlur stdDeviation="0.5" in="SourceAlpha" result="shadowBlurInner3"></feGaussianBlur>
            <feOffset dx="0" dy="-1" in="shadowBlurInner3" result="shadowOffsetInner3"></feOffset>
            <feComposite in="shadowOffsetInner3" in2="SourceAlpha" operator="arithmetic" k2="-1" k3="1" result="shadowInnerInner3"></feComposite>
            <feColorMatrix values="0 0 0 0 1   0 0 0 0 1   0 0 0 0 1  0 0 0 0.438207654 0" type="matrix" in="shadowInnerInner3" result="shadowMatrixInner3"></feColorMatrix>
            <feMerge>
                <feMergeNode in="shadowMatrixInner1"></feMergeNode>
                <feMergeNode in="shadowMatrixInner2"></feMergeNode>
                <feMergeNode in="shadowMatrixInner3"></feMergeNode>
            </feMerge>
        </filter>
        <circle id="path-6" cx="6" cy="6" r="6"></circle>
        <circle id="path-7" cx="8" cy="8" r="8"></circle>
        <filter x="-15.6%" y="-15.6%" width="131.2%" height="131.2%" filterUnits="objectBoundingBox" id="filter-8">
            <feGaussianBlur stdDeviation="2.5" in="SourceAlpha" result="shadowBlurInner1"></feGaussianBlur>
            <feOffset dx="0" dy="0" in="shadowBlurInner1" result="shadowOffsetInner1"></feOffset>
            <feComposite in="shadowOffsetInner1" in2="SourceAlpha" operator="arithmetic" k2="-1" k3="1" result="shadowInnerInner1"></feComposite>
            <feColorMatrix values="0 0 0 0 1   0 0 0 0 1   0 0 0 0 1  0 0 0 0.048997962 0" type="matrix" in="shadowInnerInner1" result="shadowMatrixInner1"></feColorMatrix>
            <feGaussianBlur stdDeviation="0.5" in="SourceAlpha" result="shadowBlurInner2"></feGaussianBlur>
            <feOffset dx="0" dy="1" in="shadowBlurInner2" result="shadowOffsetInner2"></feOffset>
            <feComposite in="shadowOffsetInner2" in2="SourceAlpha" operator="arithmetic" k2="-1" k3="1" result="shadowInnerInner2"></feComposite>
            <feColorMatrix values="0 0 0 0 0.992214073   0 0 0 0 0.992214073   0 0 0 0 0.992214073  0 0 0 0.160127944 0" type="matrix" in="shadowInnerInner2" result="shadowMatrixInner2"></feColorMatrix>
            <feGaussianBlur stdDeviation="0.5" in="SourceAlpha" result="shadowBlurInner3"></feGaussianBlur>
            <feOffset dx="0" dy="-1" in="shadowBlurInner3" result="shadowOffsetInner3"></feOffset>
            <feComposite in="shadowOffsetInner3" in2="SourceAlpha" operator="arithmetic" k2="-1" k3="1" result="shadowInnerInner3"></feComposite>
            <feColorMatrix values="0 0 0 0 1   0 0 0 0 1   0 0 0 0 1  0 0 0 0.438207654 0" type="matrix" in="shadowInnerInner3" result="shadowMatrixInner3"></feColorMatrix>
            <feMerge>
                <feMergeNode in="shadowMatrixInner1"></feMergeNode>
                <feMergeNode in="shadowMatrixInner2"></feMergeNode>
                <feMergeNode in="shadowMatrixInner3"></feMergeNode>
            </feMerge>
        </filter>
        <circle id="path-9" cx="6" cy="6" r="6"></circle>
        <circle id="path-10" cx="5" cy="5" r="5"></circle>
        <filter x="-25.0%" y="-25.0%" width="150.0%" height="150.0%" filterUnits="objectBoundingBox" id="filter-11">
            <feGaussianBlur stdDeviation="2.5" in="SourceAlpha" result="shadowBlurInner1"></feGaussianBlur>
            <feOffset dx="0" dy="0" in="shadowBlurInner1" result="shadowOffsetInner1"></feOffset>
            <feComposite in="shadowOffsetInner1" in2="SourceAlpha" operator="arithmetic" k2="-1" k3="1" result="shadowInnerInner1"></feComposite>
            <feColorMatrix values="0 0 0 0 1   0 0 0 0 1   0 0 0 0 1  0 0 0 0.048997962 0" type="matrix" in="shadowInnerInner1" result="shadowMatrixInner1"></feColorMatrix>
            <feGaussianBlur stdDeviation="0.5" in="SourceAlpha" result="shadowBlurInner2"></feGaussianBlur>
            <feOffset dx="0" dy="1" in="shadowBlurInner2" result="shadowOffsetInner2"></feOffset>
            <feComposite in="shadowOffsetInner2" in2="SourceAlpha" operator="arithmetic" k2="-1" k3="1" result="shadowInnerInner2"></feComposite>
            <feColorMatrix values="0 0 0 0 0.992214073   0 0 0 0 0.992214073   0 0 0 0 0.992214073  0 0 0 0.160127944 0" type="matrix" in="shadowInnerInner2" result="shadowMatrixInner2"></feColorMatrix>
            <feGaussianBlur stdDeviation="0.5" in="SourceAlpha" result="shadowBlurInner3"></feGaussianBlur>
            <feOffset dx="0" dy="-1" in="shadowBlurInner3" result="shadowOffsetInner3"></feOffset>
            <feComposite in="shadowOffsetInner3" in2="SourceAlpha" operator="arithmetic" k2="-1" k3="1" result="shadowInnerInner3"></feComposite>
            <feColorMatrix values="0 0 0 0 1   0 0 0 0 1   0 0 0 0 1  0 0 0 0.438207654 0" type="matrix" in="shadowInnerInner3" result="shadowMatrixInner3"></feColorMatrix>
            <feMerge>
                <feMergeNode in="shadowMatrixInner1"></feMergeNode>
                <feMergeNode in="shadowMatrixInner2"></feMergeNode>
                <feMergeNode in="shadowMatrixInner3"></feMergeNode>
            </feMerge>
        </filter>
        <circle id="path-12" cx="8" cy="8" r="8"></circle>
        <filter x="-15.6%" y="-15.6%" width="131.2%" height="131.2%" filterUnits="objectBoundingBox" id="filter-13">
            <feGaussianBlur stdDeviation="2.5" in="SourceAlpha" result="shadowBlurInner1"></feGaussianBlur>
            <feOffset dx="0" dy="0" in="shadowBlurInner1" result="shadowOffsetInner1"></feOffset>
            <feComposite in="shadowOffsetInner1" in2="SourceAlpha" operator="arithmetic" k2="-1" k3="1" result="shadowInnerInner1"></feComposite>
            <feColorMatrix values="0 0 0 0 1   0 0 0 0 1   0 0 0 0 1  0 0 0 0.048997962 0" type="matrix" in="shadowInnerInner1" result="shadowMatrixInner1"></feColorMatrix>
            <feGaussianBlur stdDeviation="0.5" in="SourceAlpha" result="shadowBlurInner2"></feGaussianBlur>
            <feOffset dx="0" dy="1" in="shadowBlurInner2" result="shadowOffsetInner2"></feOffset>
            <feComposite in="shadowOffsetInner2" in2="SourceAlpha" operator="arithmetic" k2="-1" k3="1" result="shadowInnerInner2"></feComposite>
            <feColorMatrix values="0 0 0 0 0.992214073   0 0 0 0 0.992214073   0 0 0 0 0.992214073  0 0 0 0.160127944 0" type="matrix" in="shadowInnerInner2" result="shadowMatrixInner2"></feColorMatrix>
            <feGaussianBlur stdDeviation="0.5" in="SourceAlpha" result="shadowBlurInner3"></feGaussianBlur>
            <feOffset dx="0" dy="-1" in="shadowBlurInner3" result="shadowOffsetInner3"></feOffset>
            <feComposite in="shadowOffsetInner3" in2="SourceAlpha" operator="arithmetic" k2="-1" k3="1" result="shadowInnerInner3"></feComposite>
            <feColorMatrix values="0 0 0 0 1   0 0 0 0 1   0 0 0 0 1  0 0 0 0.438207654 0" type="matrix" in="shadowInnerInner3" result="shadowMatrixInner3"></feColorMatrix>
            <feMerge>
                <feMergeNode in="shadowMatrixInner1"></feMergeNode>
                <feMergeNode in="shadowMatrixInner2"></feMergeNode>
                <feMergeNode in="shadowMatrixInner3"></feMergeNode>
            </feMerge>
        </filter>
        <rect id="path-14" x="20.0195312" y="55.2025783" width="119.724648" height="41.1510129" rx="7"></rect>
        <rect id="path-15" x="157.15332" y="55.2025783" width="119.724648" height="41.1510129" rx="7"></rect>
    </defs>
    <g id="Desktop-Copy-2" stroke="none" stroke-width="1" fill="none" fill-rule="evenodd" transform="translate(-301.000000, -528.000000)">
        <g id="iPhone-X-Mockup" transform="translate(301.000000, 528.000000)">
            <g id="phone">
                <path d="M57.4888889,1 L365.511111,1 C395.052209,1 419,25.2553427 419,55.1758242 L419,796.824176 C419,826.744657 395.052209,851 365.511111,851 L57.4888889,851 C27.9477913,851 4,826.744657 4,796.824176 L4,55.1758242 C4,25.2553427 27.9477913,1 57.4888889,1 Z M101.832692,20 L54.9458128,20 C37.0439453,20 24,33.2322544 24,50.5143838 L24,789.500376 C24,812.034354 44.1552734,832 66.9458128,832 L356.054187,832 C378.007813,832 399,811.879271 399,789.500376 L399,52.5119237 C399,31.7980569 384.830078,20.1231808 368.054187,20 L319.268428,20 C318.806692,20.0821205 317.237128,20.1231808 316.559739,20.1231808 C312.02832,20.1231808 310.578149,24.0614045 310.578149,33.2322544 C310.578149,42.4031044 299.921875,50.1529901 292.128242,50.1529901 L260.453202,50.1529901 L143.175012,50.1529901 L129.582031,50.1529901 C125.877348,50.1529901 112.289529,45.8831632 111.185547,33.2322544 C110.081565,20.5813456 109.924636,20.1231808 103.541381,20.1231808 C102.863991,20.1231808 102.294428,20.0821205 101.832692,20 Z" id="Combined-Shape" fill="#000105"></path>
                <g id="frame" transform="translate(4.000000, 0.000000)">
                    <path d="M362.862669,0 L52.1373309,0 C37.6303884,0.935420149 24.2512781,7.93542015 12,21 C19.878964,13.7272451 33.9319006,3.99513752 52.5112799,3.99513752 C250.905405,3.99513752 354.231218,3.99513752 362.48872,3.99513752 C381.068099,3.99513752 395.121036,13.7272451 403,21 C390.748722,7.93542015 377.369612,0.935420149 362.862669,0 Z" id="reflect-frame-top" fill-opacity="0.649999976" fill="url(#linearGradient-1)" opacity="0.595561594"></path>
                    <path d="M362.862669,832.108398 L52.1373309,832.108398 C37.0444336,832.764648 24.0317383,838.443848 13.8237305,849.87793 C21.7026945,843.297818 33.9319006,835.723047 52.5112799,835.723047 C250.905405,835.723047 354.231218,835.723047 362.48872,835.723047 C381.068099,835.723047 394.404727,844.419888 402.283691,851 C391.620605,838.710449 378.31543,832.726074 362.862669,832.108398 Z" id="reflect-frame-bottom-2" fill-opacity="0.649999976" fill="url(#linearGradient-1)" opacity="0.6953125" transform="translate(208.053711, 841.554199) scale(1, -1) translate(-208.053711, -841.554199) "></path>
                    <path d="M399.038672,849.233301 C390.20261,842.906031 379.375659,839.181865 367.678883,839.181865 L50.7876462,839.181865 C37.487023,839.181865 25.3111183,843.997357 15.9082736,851.98 C25.773567,841.107453 40.0164866,834.279717 55.8541093,834.279717 L361.76801,834.279717 C376.226385,834.279717 389.355717,839.970024 399.038672,849.233301 Z" id="reflect-frame-bottom" fill="url(#linearGradient-2)" opacity="0.602468297" transform="translate(207.473473, 843.129858) scale(1, -1) translate(-207.473473, -843.129858) "></path>
                    <path d="M406.775295,788.391083 L406.775295,59.6089171 C406.775295,40.0550654 399.979196,32.8265548 395.924969,28.1849666 C391.870741,23.5433784 391.698183,21.1759601 397.52341,24.6804634 C403.348637,28.1849666 415,38.3920246 415,59.6089171 L415,788.391083 C415,809.607975 403.348637,819.815033 397.52341,823.319537 C391.698183,826.82404 391.870741,824.456622 395.924969,819.815033 C399.979196,815.173445 406.775295,807.944935 406.775295,788.391083 Z" id="reflect-frame-right" fill="url(#linearGradient-3)" opacity="0.650000036"></path>
                    <path d="M13.7752949,788.391083 L13.7752949,59.6089171 C13.7752949,40.0550654 6.97919634,32.8265548 2.9249689,28.1849666 C-1.12925853,23.5433784 -1.3018175,21.1759601 4.52340983,24.6804634 C10.3486371,28.1849666 22,38.3920246 22,59.6089171 L22,788.391083 C22,809.607975 10.3486371,819.815033 4.52340983,823.319537 C-1.3018175,826.82404 -1.12925853,824.456622 2.9249689,819.815033 C6.97919634,815.173445 13.7752949,807.944935 13.7752949,788.391083 Z" id="reflect-frame-left" fill="url(#linearGradient-3)" opacity="0.650000036" transform="translate(11.000000, 424.000000) scale(-1, 1) translate(-11.000000, -424.000000) "></path>
                </g>
                <g id="controls" transform="translate(0.000000, 113.000000)" fill="#000000">
                    <rect id="silent" x="0" y="0" width="8" height="34" rx="2"></rect>
                    <rect id="vol+" x="0" y="60" width="8" height="64" rx="2"></rect>
                    <rect id="power" x="415" y="40" width="8" height="80" rx="2"></rect>
                    <rect id="vol-" x="0" y="140" width="8" height="64" rx="2"></rect>
                </g>
                <g id="f-cam-2" transform="translate(130.000000, 24.000000)">
                    <g id="oval-shade" opacity="0.49609375">
                        <use fill="#000000" fill-rule="evenodd" xlink:href="#path-4"></use>
                        <use fill="black" fill-opacity="1" filter="url(#filter-5)" xlink:href="#path-4"></use>
                    </g>
                    <circle id="oval" fill="#141414" cx="8" cy="8" r="5.71428571"></circle>
                    <g id="front-facing-camera" opacity="0.502038043" transform="translate(2.000000, 2.000000)">
                        <g>
                            <use fill="#334B80" fill-rule="evenodd" xlink:href="#path-6"></use>
                            <circle stroke="#192E65" stroke-width="2" cx="6" cy="6" r="5"></circle>
                            <use stroke="#272149" stroke-width="1" xlink:href="#path-6"></use>
                        </g>
                        <circle id="middle" fill="#14285E" cx="6" cy="6" r="1.63636364"></circle>
                        <circle id="glare" fill="#92B6D7" cx="4.36363636" cy="4.36363636" r="1.09090909"></circle>
                        <circle id="reflection" fill="#516C9D" cx="7.63636364" cy="7.63636364" r="1.09090909"></circle>
                    </g>
                </g>
                <g id="f-cam-1" transform="translate(161.000000, 24.000000)">
                    <g id="oval-shade" opacity="0.49609375">
                        <use fill="#000000" fill-rule="evenodd" xlink:href="#path-7"></use>
                        <use fill="black" fill-opacity="1" filter="url(#filter-8)" xlink:href="#path-7"></use>
                    </g>
                    <circle id="oval" fill="#141414" cx="8" cy="8" r="5.71428571"></circle>
                    <g id="front-facing-camera" opacity="0.498867754" transform="translate(2.000000, 2.000000)">
                        <g>
                            <use fill="#334B80" fill-rule="evenodd" xlink:href="#path-9"></use>
                            <circle stroke="#192E65" stroke-width="2" cx="6" cy="6" r="5"></circle>
                            <use stroke="#272149" stroke-width="1" xlink:href="#path-9"></use>
                        </g>
                        <circle id="middle" fill="#14285E" cx="6" cy="6" r="1.63636364"></circle>
                        <circle id="glare" fill="#92B6D7" cx="4.36363636" cy="4.36363636" r="1.09090909"></circle>
                        <circle id="reflection" fill="#516C9D" cx="7.63636364" cy="7.63636364" r="1.09090909"></circle>
                    </g>
                </g>
                <g id="proximity" transform="translate(246.000000, 27.000000)">
                    <g id="oval-shade" opacity="0.49609375">
                        <use fill="#000000" fill-rule="evenodd" xlink:href="#path-10"></use>
                        <use fill="black" fill-opacity="1" filter="url(#filter-11)" xlink:href="#path-10"></use>
                    </g>
                    <circle id="oval" fill="#141414" cx="5" cy="5" r="3.57142857"></circle>
                    <circle id="oval-innershade" fill="#141414" cx="6.07142857" cy="5.35714286" r="1.07142857"></circle>
                </g>
                <g id="sensor" transform="translate(275.000000, 24.000000)">
                    <circle id="oval" fill="#181819" cx="8" cy="8" r="8"></circle>
                    <g id="oval-shade" opacity="0.49609375">
                        <use fill="#000000" fill-rule="evenodd" xlink:href="#path-12"></use>
                        <use fill="black" fill-opacity="1" filter="url(#filter-13)" xlink:href="#path-12"></use>
                    </g>
                    <g id="iris-recognition-led" opacity="0.695029438" transform="translate(2.000000, 2.000000)">
                        <circle fill="#1E1939" cx="6" cy="6" r="6"></circle>
                        <circle id="gutter" fill="#342B64" cx="6" cy="6" r="3.81818182"></circle>
                        <circle id="reflection" fill="#51439F" cx="6" cy="6" r="1.63636364"></circle>
                        <circle id="glare" fill="#FFFFFF" opacity="0.340000004" cx="4.36363636" cy="4.36363636" r="1.09090909"></circle>
                    </g>
                </g>
                <g id="earpiece" transform="translate(211.500000, 32.500000) scale(-1, 1) translate(-211.500000, -32.500000) translate(189.000000, 29.000000)" fill="#181819">
                    <rect id="earpiece-hole" x="0" y="0" width="45" height="7" rx="3.5"></rect>
                </g>
            </g>
            <g id="Screen" transform="translate(24.000000, 20.000000)"></g>
            <g id="Group-2" transform="translate(49.000000, 189.000000)">
                <path d="M26.9207946,-1.08763232e-15 L278.377057,1.08763232e-15 C287.738004,-6.31945701e-16 291.132509,0.974668917 294.554731,2.80489339 C297.976954,4.63511786 300.662734,7.32089789 302.492958,10.7431201 C304.323183,14.1653423 305.297852,17.5598478 305.297852,26.9207946 L305.297852,54.3775479 C305.297852,63.7384947 304.323183,67.1330002 302.492958,70.5552224 C300.662734,73.9774447 297.976954,76.6632247 294.554731,78.4934492 C291.132509,80.3236736 287.738004,81.2983425 278.377057,81.2983425 L26.9207946,81.2983425 C17.5598478,81.2983425 14.1653423,80.3236736 10.7431201,78.4934492 C7.32089789,76.6632247 4.63511786,73.9774447 2.80489339,70.5552224 C0.974668917,67.1330002 4.21297134e-16,63.7384947 -7.25088215e-16,54.3775479 L7.25088215e-16,26.9207946 C-4.21297134e-16,17.5598478 0.974668917,14.1653423 2.80489339,10.7431201 C4.63511786,7.32089789 7.32089789,4.63511786 10.7431201,2.80489339 C14.1653423,0.974668917 17.5598478,6.31945701e-16 26.9207946,-1.08763232e-15 Z" id="Combined-Shape" stroke="#D3D3D3" stroke-width="0.5" fill="#FFFFFF"></path>
                <text id="I’m-Talky-and-my-mis" font-family="SFProDisplay-Medium, SF Pro Display" font-size="17" font-weight="400" letter-spacing="0.0540000014" fill="#6E6E6E">
                    <tspan x="19.9541079" y="32.1565378">I’m Talky and my mission is to make </tspan>
                    <tspan x="19.9541079" y="52.1565378">you a better public speaker!</tspan>
                </text>
            </g>
            <g id="Group-2-Copy" transform="translate(49.000000, 402.000000)">
                <path d="M26.9207946,-1.08763232e-15 L278.377057,1.08763232e-15 C287.738004,-6.31945701e-16 291.132509,0.974668917 294.554731,2.80489339 C297.976954,4.63511786 300.662734,7.32089789 302.492958,10.7431201 C304.323183,14.1653423 305.297852,17.5598478 305.297852,26.9207946 L305.297852,54.3775479 C305.297852,63.7384947 304.323183,67.1330002 302.492958,70.5552224 C300.662734,73.9774447 297.976954,76.6632247 294.554731,78.4934492 C291.132509,80.3236736 287.738004,81.2983425 278.377057,81.2983425 L26.9207946,81.2983425 C17.5598478,81.2983425 14.1653423,80.3236736 10.7431201,78.4934492 C7.32089789,76.6632247 4.63511786,73.9774447 2.80489339,70.5552224 C0.974668917,67.1330002 4.21297134e-16,63.7384947 -7.25088215e-16,54.3775479 L7.25088215e-16,26.9207946 C-4.21297134e-16,17.5598478 0.974668917,14.1653423 2.80489339,10.7431201 C4.63511786,7.32089789 7.32089789,4.63511786 10.7431201,2.80489339 C14.1653423,0.974668917 17.5598478,6.31945701e-16 26.9207946,-1.08763232e-15 Z" id="Combined-Shape" stroke="#D3D3D3" stroke-width="0.5" fill="#FFFFFF"></path>
                <text id="Awesome!-I-will-star" font-family="SFProDisplay-Medium, SF Pro Display" font-size="17" font-weight="400" letter-spacing="0.0540000014" fill="#6E6E6E">
                    <tspan x="19.9541079" y="32.1565378">Awesome! I will start analyzing your </tspan>
                    <tspan x="19.9541079" y="52.1565378">speech.</tspan>
                </text>
            </g>
            <g id="Group-2-Copy-5" transform="translate(49.000000, 559.000000)">
                <path d="M26.9207946,2.46508136e-15 L278.377057,1.08763232e-15 C287.738004,-6.31945701e-16 291.132509,0.974668917 294.554731,2.80489339 C297.976954,4.63511786 300.662734,7.32089789 302.492958,10.7431201 C304.323183,14.1653423 305.297852,17.5598478 305.297852,26.9207946 L305.297852,66.0792054 C305.297852,75.4401522 304.323183,78.8346577 302.492958,82.2568799 C300.662734,85.6791021 297.976954,88.3648821 294.554731,90.1951066 C291.132509,92.0253311 287.738004,93 278.377057,93 L26.9207946,93 C17.5598478,93 14.1653423,92.0253311 10.7431201,90.1951066 C7.32089789,88.3648821 4.63511786,85.6791021 2.80489339,82.2568799 C0.974668917,78.8346577 4.21297134e-16,75.4401522 -7.25088215e-16,66.0792054 L7.25088215e-16,26.9207946 C-4.21297134e-16,17.5598478 0.974668917,14.1653423 2.80489339,10.7431201 C4.63511786,7.32089789 7.32089789,4.63511786 10.7431201,2.80489339 C14.1653423,0.974668917 17.5598478,4.18465938e-15 26.9207946,2.46508136e-15 Z" id="Combined-Shape" stroke="#D3D3D3" stroke-width="0.5" fill="#FFFFFF"></path>
                <text id="Great-job-with-your" font-family="SFProDisplay-Medium, SF Pro Display" font-size="17" font-weight="400" letter-spacing="0.0540000014" fill="#6E6E6E">
                    <tspan x="19.9541079" y="31.1565378">Great job with your pausing! The </tspan>
                    <tspan x="19.9541079" y="51.1565378">breaks in your speech made you </tspan>
                    <tspan x="19.9541079" y="71.1565378">speech quite effective.</tspan>
                </text>
            </g>
            <g id="Group-2-Copy-6" transform="translate(49.000000, 662.000000)">
                <path d="M26.9207946,2.46508136e-15 L278.377057,1.08763232e-15 C287.738004,-6.31945701e-16 291.132509,0.974668917 294.554731,2.80489339 C297.976954,4.63511786 300.662734,7.32089789 302.492958,10.7431201 C304.323183,14.1653423 305.297852,17.5598478 305.297852,26.9207946 L305.297852,66.0792054 C305.297852,75.4401522 304.323183,78.8346577 302.492958,82.2568799 C300.662734,85.6791021 297.976954,88.3648821 294.554731,90.1951066 C291.132509,92.0253311 287.738004,93 278.377057,93 L26.9207946,93 C17.5598478,93 14.1653423,92.0253311 10.7431201,90.1951066 C7.32089789,88.3648821 4.63511786,85.6791021 2.80489339,82.2568799 C0.974668917,78.8346577 4.21297134e-16,75.4401522 -7.25088215e-16,66.0792054 L7.25088215e-16,26.9207946 C-4.21297134e-16,17.5598478 0.974668917,14.1653423 2.80489339,10.7431201 C4.63511786,7.32089789 7.32089789,4.63511786 10.7431201,2.80489339 C14.1653423,0.974668917 17.5598478,4.18465938e-15 26.9207946,2.46508136e-15 Z" id="Combined-Shape" stroke="#D3D3D3" stroke-width="0.5" fill="#FFFFFF"></path>
                <text id="Hmm.-I-noticed-that" font-family="SFProDisplay-Medium, SF Pro Display" font-size="17" font-weight="400" letter-spacing="0.0540000014" fill="#6E6E6E">
                    <tspan x="19.9541079" y="31.1565378">Hmm. I noticed that you spoke </tspan>
                    <tspan x="19.9541079" y="51.1565378">quietly. It was hard for me to hear </tspan>
                    <tspan x="19.9541079" y="71.1565378">you. Try speaking louder next time!</tspan>
                </text>
            </g>
            <g id="Group-6" transform="translate(49.000000, 494.000000)">
                <g id="Group-4-Copy-2" fill="#FFFFFF" stroke="#D3D3D3" stroke-width="0.5">
                    <g id="Group-2-Copy">
                        <path d="M24.6458056,-6.69723627e-16 L77.4538038,-2.56840224e-15 C84.0847637,2.10298573e-15 87.934267,0.974668917 91.3564893,2.80489339 C94.7787115,4.63511786 97.4644915,7.32089789 99.294716,10.7431201 C101.12494,14.1653423 102.099609,18.0148456 102.099609,24.6458056 L102.099609,29.5530894 C102.099609,36.1840494 101.12494,40.0335527 99.294716,43.4557749 C97.4644915,46.8779971 94.7787115,49.5637772 91.3564893,51.3940016 C87.934267,53.2242261 84.0847637,54.198895 77.4538038,54.198895 L24.6458056,54.198895 C18.0148456,54.198895 14.1653423,53.2242261 10.7431201,51.3940016 C7.32089789,49.5637772 4.63511786,46.8779971 2.80489339,43.4557749 C0.974668917,40.0335527 3.65575975e-16,36.1840494 -4.46482418e-16,29.5530894 L-3.10623126e-15,24.6458056 C-3.91828965e-15,18.0148456 0.974668917,14.1653423 2.80489339,10.7431201 C4.63511786,7.32089789 7.32089789,4.63511786 10.7431201,2.80489339 C14.1653423,0.974668917 18.0148456,5.48363962e-16 24.6458056,-6.69723627e-16 Z" id="Combined-Shape"></path>
                    </g>
                </g>
                <g id="Group-5" transform="translate(25.024414, 23.084715)">
                    <ellipse id="Oval-2" fill="#C4C3C3" cx="5.00488281" cy="5.01841621" rx="5.00488281" ry="5.01841621"></ellipse>
                    <ellipse id="Oval-2-Copy" fill="#D8D8D8" cx="26.0253906" cy="5.01841621" rx="5.00488281" ry="5.01841621"></ellipse>
                    <ellipse id="Oval-2-Copy-2" fill="#C4C3C3" cx="47.0458984" cy="5.01841621" rx="5.00488281" ry="5.01841621"></ellipse>
                </g>
            </g>
            <g id="Group-2-Copy-2" transform="translate(49.000000, 280.000000)">
                <path d="M26.9207946,2.46508136e-15 L278.377057,4.640346e-15 C287.738004,2.92076798e-15 291.132509,0.974668917 294.554731,2.80489339 C297.976954,4.63511786 300.662734,7.32089789 302.492958,10.7431201 C304.323183,14.1653423 305.297852,17.5598478 305.297852,26.9207946 L305.297852,84.4880452 C305.297852,93.8489919 304.323183,97.2434974 302.492958,100.66572 C300.662734,104.087942 297.976954,106.773722 294.554731,108.603946 C291.132509,110.434171 287.738004,111.40884 278.377057,111.40884 L26.9207946,111.40884 C17.5598478,111.40884 14.1653423,110.434171 10.7431201,108.603946 C7.32089789,106.773722 4.63511786,104.087942 2.80489339,100.66572 C0.974668917,97.2434974 4.21297134e-16,93.8489919 -7.25088215e-16,84.4880452 L7.25088215e-16,26.9207946 C-4.21297134e-16,17.5598478 0.974668917,14.1653423 2.80489339,10.7431201 C4.63511786,7.32089789 7.32089789,4.63511786 10.7431201,2.80489339 C14.1653423,0.974668917 17.5598478,4.18465938e-15 26.9207946,2.46508136e-15 Z" id="Combined-Shape" stroke="#D3D3D3" stroke-width="0.5" fill="#FFFFFF"></path>
                <g id="Rectangle-4">
                    <use fill="#FFFEFE" fill-rule="evenodd" xlink:href="#path-14"></use>
                    <rect stroke="#D8D8D8" stroke-width="1" x="20.5195312" y="55.7025783" width="118.724648" height="40.1510129" rx="7"></rect>
                </g>
                <g id="Rectangle-4-Copy">
                    <use fill="#FFFEFE" fill-rule="evenodd" xlink:href="#path-15"></use>
                    <rect stroke="#D8D8D8" stroke-width="1" x="157.65332" y="55.7025783" width="118.724648" height="40.1510129" rx="7"></rect>
                </g>
                <text id="Hit-record-whenever" font-family="SFProDisplay-Medium, SF Pro Display" font-size="17" font-weight="400" letter-spacing="0.0540000014" fill="#6E6E6E">
                    <tspan x="20.0195312" y="32.1031308">Hit record whenever you’re ready!</tspan>
                </text>
                <g id="Group-2" transform="translate(53.051758, 67.246777)" fill="#6E6E6E" font-family="SFProDisplay-Medium, SF Pro Display" font-size="17" font-weight="400" letter-spacing="0.0540000014">
                    <text id="Record">
                        <tspan x="0" y="16.0368324">Record</tspan>
                    </text>
                </g>
                <g id="Group-3" transform="translate(197.192383, 67.246777)" fill="#6E6E6E" font-family="SFProDisplay-Medium, SF Pro Display" font-size="17" font-weight="400" letter-spacing="0.0540000014">
                    <g id="Group-2-Copy-3">
                        <text id="Done">
                            <tspan x="0" y="16.0368324">Done</tspan>
                        </text>
                    </g>
                </g>
            </g>
            <g id="status-bar-white" transform="translate(24.000000, 25.000000)">
                <rect id="bounds" x="0" y="0" width="375" height="20"></rect>
                <path d="M347.272727,9 L350,9 L345.090909,15 L346.727273,10.5 L346.090909,10.5 L346.090909,9 L347.173554,9 L348.363636,5 L344,10.5 L346.727273,10.5 L348.090909,10.5 L348.090909,9 L347.272727,9 Z" id="lightning" fill="#FFFFFF" fill-rule="evenodd"></path>
                <g id="battery" stroke-width="1" fill-rule="evenodd" transform="translate(315.000000, 4.000000)">
                    <rect id="inside" fill="#4CD964" x="2" y="2.5" width="20" height="7.5" rx="1"></rect>
                    <path d="M25,4.56300874 C25.8626136,4.78503014 26.5,5.56808029 26.5,6.5 C26.5,7.43191971 25.8626136,8.21496986 25,8.43699126 L25,4.56300874 Z" id="side" fill="#FFFFFF"></path>
                    <path d="M2,0.5 L22,0.5 C23.1045695,0.5 24,1.3954305 24,2.5 L24,10 C24,11.1045695 23.1045695,12 22,12 L2,12 C0.8954305,12 1.3527075e-16,11.1045695 0,10 L0,2.5 C-1.3527075e-16,1.3954305 0.8954305,0.5 2,0.5 Z M2,1.5 C1.44771525,1.5 1,1.94771525 1,2.5 L1,10 C1,10.5522847 1.44771525,11 2,11 L22,11 C22.5522847,11 23,10.5522847 23,10 L23,2.5 C23,1.94771525 22.5522847,1.5 22,1.5 L2,1.5 Z" id="frame" fill="#FFFFFF"></path>
                </g>
                <path d="M48.7824856,8.28248558 C50.5016474,6.56332372 52.8766474,5.5 55.5,5.5 C58.1233526,5.5 60.4983526,6.56332372 62.2175144,8.28248558 L61.1568542,9.34314575 C59.709139,7.8954305 57.709139,7 55.5,7 C53.290861,7 51.290861,7.8954305 49.8431458,9.34314575 L48.7824856,8.28248558 Z M50.9038059,10.4038059 C52.0800746,9.22753728 53.7050746,8.5 55.5,8.5 C57.2949254,8.5 58.9199254,9.22753728 60.0961941,10.4038059 L59.0355339,11.4644661 C58.1307119,10.5596441 56.8807119,10 55.5,10 C54.1192881,10 52.8692881,10.5596441 51.9644661,11.4644661 L50.9038059,10.4038059 Z M53.0251263,12.5251263 C53.6585017,11.8917508 54.5335017,11.5 55.5,11.5 C56.4664983,11.5 57.3414983,11.8917508 57.9748737,12.5251263 L55.5,15 L53.0251263,12.5251263 Z" id="wifi" fill="#FFFFFF" fill-rule="evenodd"></path>
                <g id="signal" stroke-width="1" fill-rule="evenodd" transform="translate(26.000000, 5.000000)" fill="#FFFFFF">
                    <rect id="4" x="13.5" y="0" width="3" height="10" rx="1"></rect>
                    <rect id="3" x="9" y="2" width="3" height="8" rx="1"></rect>
                    <rect id="2" x="4.5" y="4" width="3" height="6" rx="1"></rect>
                    <rect id="1" x="0" y="5" width="3" height="5" rx="1"></rect>
                </g>
            </g>
        </g>
    </g>
</svg>