<?xml version="1.0" standalone="no"?>
<!DOCTYPE svg PUBLIC "-//W3C//DTD SVG 20010904//EN"
 "http://www.w3.org/TR/2001/REC-SVG-20010904/DTD/svg10.dtd">
<svg version="1.0" xmlns="http://www.w3.org/2000/svg"
 width="260.000000pt" height="260.000000pt" viewBox="0 0 260.000000 260.000000"
 preserveAspectRatio="xMidYMid meet">
<metadata>
Created by potrace 1.11, written by Peter Selinger 2001-2013
</metadata>
<g transform="translate(0.000000,260.000000) scale(0.100000,-0.100000)"
fill="#000000" stroke="none">
<path d="M911 1794 c-78 -16 -137 -50 -190 -110 l-41 -47 0 77 0 77 -82 -3
-83 -3 0 -492 0 -493 82 0 81 0 1 298 c0 163 3 315 6 337 23 149 133 233 289
223 106 -7 167 -44 210 -128 34 -64 39 -126 39 -447 l0 -283 81 0 81 0 1 313
c0 349 7 396 66 463 95 108 297 113 396 10 71 -73 76 -98 79 -456 1 -173 3
-318 3 -322 0 -5 36 -8 80 -8 l81 0 -1 330 c-2 394 -9 437 -92 542 -99 126
-317 170 -470 93 -66 -33 -117 -76 -153 -128 l-29 -44 -28 41 c-37 56 -47 67
-89 99 -80 60 -204 84 -318 61z"/>
</g>
</svg>
